<svg xmlns="http://www.w3.org/2000/svg" width="172" height="44" viewBox="0 0 172 44" fill="none">
  <path fill-rule="evenodd" clip-rule="evenodd" d="M43.3736 5.00159L31.8604 37.1797H35.2735L38.4262 28.1712H51.2306L54.4156 37.1797H57.8287L46.3154 5.00159H43.3736ZM44.7961 9.97094L49.7834 24.0779H39.8594L44.7961 9.97254V9.97094ZM132.832 5.00159L121.318 37.1797H124.731L127.884 28.1712H140.688L143.873 37.1797H147.286L135.773 5.00159H132.832ZM134.254 9.97094L139.242 24.0779H129.317L134.254 9.97254V9.97094ZM153.346 5.00159V37.1797H172V32.9638H156.514V5.00159H153.346ZM83.3008 5.00159V30.9776L66.7412 5H63.8887V37.1797H66.9069V11.2977L83.4128 37.1797H86.319V5.00159H83.3008ZM113.891 23.0601C113.891 30.5109 110.487 33.7904 105.928 33.7904C101.369 33.7904 97.9657 30.5093 97.9657 23.0601V5H94.7979V23.0059C94.7979 33.3699 99.4 38 105.928 38C112.456 38 117.058 33.3699 117.058 23.0059V5H113.891V23.0601ZM12.9002 21.3511L2.85248 5H0V37.1797H3.01819V11.2977L12.9002 27.3143L22.7811 11.2961V37.1797H25.8004V5.00159H22.9479L12.9002 21.3511Z" fill="black"/>
</svg>