<svg xmlns="http://www.w3.org/2000/svg" width="19" height="23" viewBox="0 0 19 23" fill="none">
  <g clip-path="url(#clip0_1_40)">
    <path d="M1.48199 5.4541L0.521261 19.8216C0.521261 19.8751 0.521261 19.9285 0.521261 19.982C0.519916 20.3112 0.584676 20.6374 0.711842 20.942C0.839009 21.2466 1.02609 21.5236 1.26241 21.7573C1.49873 21.991 1.77965 22.1768 2.08914 22.3039C2.39863 22.4311 2.73063 22.4973 3.06618 22.4986H16.1076C16.4425 22.4769 16.7698 22.3907 17.0707 22.245C17.3716 22.0992 17.6403 21.8967 17.8615 21.649C18.0826 21.4014 18.2519 21.1134 18.3595 20.8016C18.4672 20.4897 18.5112 20.1601 18.489 19.8316L17.518 5.4541H1.48199Z" fill="black"/>
    <path d="M6.13235 4.01067C6.09639 3.56127 6.15557 3.10942 6.30619 2.68354C6.45681 2.25765 6.6956 1.86694 7.00756 1.53594C7.31952 1.20495 7.6979 0.940839 8.11892 0.760207C8.53995 0.579574 8.9945 0.486328 9.45403 0.486328C9.91356 0.486328 10.3681 0.579574 10.7891 0.760207C11.2102 0.940839 11.5885 1.20495 11.9005 1.53594C12.2125 1.86694 12.4513 2.25765 12.6019 2.68354C12.7525 3.10942 12.8117 3.56127 12.7757 4.01067" fill="black"/>
  </g>
  <defs>
    <clipPath id="clip0_1_40">
      <rect width="19" height="23" fill="white"/>
    </clipPath>
  </defs>
</svg>